<mxfile host="app.diagrams.net" modified="2020-11-09T20:15:02.205Z" agent="5.0 (Macintosh; Intel Mac OS X 10_15_7) AppleWebKit/537.36 (KHTML, like Gecko) Chrome/86.0.4240.80 Safari/537.36" etag="Dkp1fyXeJ1Hqi6kaT5Pm" version="13.8.7" type="github">
  <diagram id="C5RBs43oDa-KdzZeNtuy" name="Page-1">
    <mxGraphModel dx="898" dy="665" grid="1" gridSize="10" guides="1" tooltips="1" connect="1" arrows="1" fold="1" page="1" pageScale="1" pageWidth="827" pageHeight="1169" math="0" shadow="0">
      <root>
        <mxCell id="WIyWlLk6GJQsqaUBKTNV-0" />
        <mxCell id="WIyWlLk6GJQsqaUBKTNV-1" parent="WIyWlLk6GJQsqaUBKTNV-0" />
        <mxCell id="Ehaus5VikyLSaYL8oiBz-0" value="VpcEntity" style="swimlane;fontStyle=0;childLayout=stackLayout;horizontal=1;startSize=26;fillColor=none;horizontalStack=0;resizeParent=1;resizeParentMax=0;resizeLast=0;collapsible=1;marginBottom=0;" vertex="1" parent="WIyWlLk6GJQsqaUBKTNV-1">
          <mxGeometry x="290" y="120" width="220" height="628" as="geometry">
            <mxRectangle x="260" y="120" width="80" height="26" as="alternateBounds" />
          </mxGeometry>
        </mxCell>
        <mxCell id="Ehaus5VikyLSaYL8oiBz-1" value="+ cidr: String" style="text;strokeColor=none;fillColor=none;align=left;verticalAlign=top;spacingLeft=4;spacingRight=4;overflow=hidden;rotatable=0;points=[[0,0.5],[1,0.5]];portConstraint=eastwest;" vertex="1" parent="Ehaus5VikyLSaYL8oiBz-0">
          <mxGeometry y="26" width="220" height="26" as="geometry" />
        </mxCell>
        <mxCell id="Ehaus5VikyLSaYL8oiBz-2" value="+ routes: List&lt;RouteEntity&gt;" style="text;strokeColor=none;fillColor=none;align=left;verticalAlign=top;spacingLeft=4;spacingRight=4;overflow=hidden;rotatable=0;points=[[0,0.5],[1,0.5]];portConstraint=eastwest;" vertex="1" parent="Ehaus5VikyLSaYL8oiBz-0">
          <mxGeometry y="52" width="220" height="26" as="geometry" />
        </mxCell>
        <mxCell id="Ehaus5VikyLSaYL8oiBz-6" value="+ router: Router&#xa;" style="text;strokeColor=none;fillColor=none;align=left;verticalAlign=top;spacingLeft=4;spacingRight=4;overflow=hidden;rotatable=0;points=[[0,0.5],[1,0.5]];portConstraint=eastwest;" vertex="1" parent="Ehaus5VikyLSaYL8oiBz-0">
          <mxGeometry y="78" width="220" height="22" as="geometry" />
        </mxCell>
        <mxCell id="Ehaus5VikyLSaYL8oiBz-3" value="+ admin_state_up: boolean&#xa;" style="text;strokeColor=none;fillColor=none;align=left;verticalAlign=top;spacingLeft=4;spacingRight=4;overflow=hidden;rotatable=0;points=[[0,0.5],[1,0.5]];portConstraint=eastwest;" vertex="1" parent="Ehaus5VikyLSaYL8oiBz-0">
          <mxGeometry y="100" width="220" height="22" as="geometry" />
        </mxCell>
        <mxCell id="Ehaus5VikyLSaYL8oiBz-7" value="+ dns_domain: String&#xa;" style="text;strokeColor=none;fillColor=none;align=left;verticalAlign=top;spacingLeft=4;spacingRight=4;overflow=hidden;rotatable=0;points=[[0,0.5],[1,0.5]];portConstraint=eastwest;" vertex="1" parent="Ehaus5VikyLSaYL8oiBz-0">
          <mxGeometry y="122" width="220" height="22" as="geometry" />
        </mxCell>
        <mxCell id="Ehaus5VikyLSaYL8oiBz-8" value="+ mtu: Integer&#xa;" style="text;strokeColor=none;fillColor=none;align=left;verticalAlign=top;spacingLeft=4;spacingRight=4;overflow=hidden;rotatable=0;points=[[0,0.5],[1,0.5]];portConstraint=eastwest;" vertex="1" parent="Ehaus5VikyLSaYL8oiBz-0">
          <mxGeometry y="144" width="220" height="22" as="geometry" />
        </mxCell>
        <mxCell id="Ehaus5VikyLSaYL8oiBz-4" value="+ port_security_enabled: boolean&#xa;" style="text;strokeColor=none;fillColor=none;align=left;verticalAlign=top;spacingLeft=4;spacingRight=4;overflow=hidden;rotatable=0;points=[[0,0.5],[1,0.5]];portConstraint=eastwest;" vertex="1" parent="Ehaus5VikyLSaYL8oiBz-0">
          <mxGeometry y="166" width="220" height="22" as="geometry" />
        </mxCell>
        <mxCell id="Ehaus5VikyLSaYL8oiBz-9" value="+ provider:network_type: String&#xa;" style="text;strokeColor=none;fillColor=none;align=left;verticalAlign=top;spacingLeft=4;spacingRight=4;overflow=hidden;rotatable=0;points=[[0,0.5],[1,0.5]];portConstraint=eastwest;" vertex="1" parent="Ehaus5VikyLSaYL8oiBz-0">
          <mxGeometry y="188" width="220" height="22" as="geometry" />
        </mxCell>
        <mxCell id="Ehaus5VikyLSaYL8oiBz-11" value="+ provider:physical_network: String&#xa;" style="text;strokeColor=none;fillColor=none;align=left;verticalAlign=top;spacingLeft=4;spacingRight=4;overflow=hidden;rotatable=0;points=[[0,0.5],[1,0.5]];portConstraint=eastwest;" vertex="1" parent="Ehaus5VikyLSaYL8oiBz-0">
          <mxGeometry y="210" width="220" height="22" as="geometry" />
        </mxCell>
        <mxCell id="Ehaus5VikyLSaYL8oiBz-12" value="+ provider:segmentation_id: Integer&#xa;" style="text;strokeColor=none;fillColor=none;align=left;verticalAlign=top;spacingLeft=4;spacingRight=4;overflow=hidden;rotatable=0;points=[[0,0.5],[1,0.5]];portConstraint=eastwest;" vertex="1" parent="Ehaus5VikyLSaYL8oiBz-0">
          <mxGeometry y="232" width="220" height="22" as="geometry" />
        </mxCell>
        <mxCell id="Ehaus5VikyLSaYL8oiBz-10" value="+ router:external: boolean" style="text;strokeColor=none;fillColor=none;align=left;verticalAlign=top;spacingLeft=4;spacingRight=4;overflow=hidden;rotatable=0;points=[[0,0.5],[1,0.5]];portConstraint=eastwest;" vertex="1" parent="Ehaus5VikyLSaYL8oiBz-0">
          <mxGeometry y="254" width="220" height="22" as="geometry" />
        </mxCell>
        <mxCell id="Ehaus5VikyLSaYL8oiBz-14" value="+ segments: List&lt;SegmentInfoInVpc&gt;&#xa;" style="text;strokeColor=none;fillColor=none;align=left;verticalAlign=top;spacingLeft=4;spacingRight=4;overflow=hidden;rotatable=0;points=[[0,0.5],[1,0.5]];portConstraint=eastwest;" vertex="1" parent="Ehaus5VikyLSaYL8oiBz-0">
          <mxGeometry y="276" width="220" height="22" as="geometry" />
        </mxCell>
        <mxCell id="Ehaus5VikyLSaYL8oiBz-15" value="+ shared: boolean&#xa;" style="text;strokeColor=none;fillColor=none;align=left;verticalAlign=top;spacingLeft=4;spacingRight=4;overflow=hidden;rotatable=0;points=[[0,0.5],[1,0.5]];portConstraint=eastwest;" vertex="1" parent="Ehaus5VikyLSaYL8oiBz-0">
          <mxGeometry y="298" width="220" height="22" as="geometry" />
        </mxCell>
        <mxCell id="Ehaus5VikyLSaYL8oiBz-16" value="+ vlan_transparent: boolean&#xa;" style="text;strokeColor=none;fillColor=none;align=left;verticalAlign=top;spacingLeft=4;spacingRight=4;overflow=hidden;rotatable=0;points=[[0,0.5],[1,0.5]];portConstraint=eastwest;" vertex="1" parent="Ehaus5VikyLSaYL8oiBz-0">
          <mxGeometry y="320" width="220" height="22" as="geometry" />
        </mxCell>
        <mxCell id="Ehaus5VikyLSaYL8oiBz-18" value="+ is_default: boolean&#xa;" style="text;strokeColor=none;fillColor=none;align=left;verticalAlign=top;spacingLeft=4;spacingRight=4;overflow=hidden;rotatable=0;points=[[0,0.5],[1,0.5]];portConstraint=eastwest;" vertex="1" parent="Ehaus5VikyLSaYL8oiBz-0">
          <mxGeometry y="342" width="220" height="22" as="geometry" />
        </mxCell>
        <mxCell id="Ehaus5VikyLSaYL8oiBz-13" value="+ availability_zone_hints: List&lt;String&gt;&#xa;" style="text;strokeColor=none;fillColor=none;align=left;verticalAlign=top;spacingLeft=4;spacingRight=4;overflow=hidden;rotatable=0;points=[[0,0.5],[1,0.5]];portConstraint=eastwest;" vertex="1" parent="Ehaus5VikyLSaYL8oiBz-0">
          <mxGeometry y="364" width="220" height="22" as="geometry" />
        </mxCell>
        <mxCell id="Ehaus5VikyLSaYL8oiBz-19" value="+ availability_zones: List&lt;String&gt;&#xa;" style="text;strokeColor=none;fillColor=none;align=left;verticalAlign=top;spacingLeft=4;spacingRight=4;overflow=hidden;rotatable=0;points=[[0,0.5],[1,0.5]];portConstraint=eastwest;" vertex="1" parent="Ehaus5VikyLSaYL8oiBz-0">
          <mxGeometry y="386" width="220" height="22" as="geometry" />
        </mxCell>
        <mxCell id="Ehaus5VikyLSaYL8oiBz-20" value="+ qos_policy_id: String&#xa;" style="text;strokeColor=none;fillColor=none;align=left;verticalAlign=top;spacingLeft=4;spacingRight=4;overflow=hidden;rotatable=0;points=[[0,0.5],[1,0.5]];portConstraint=eastwest;" vertex="1" parent="Ehaus5VikyLSaYL8oiBz-0">
          <mxGeometry y="408" width="220" height="22" as="geometry" />
        </mxCell>
        <mxCell id="Ehaus5VikyLSaYL8oiBz-21" value="+ revision_number: Integer&#xa;" style="text;strokeColor=none;fillColor=none;align=left;verticalAlign=top;spacingLeft=4;spacingRight=4;overflow=hidden;rotatable=0;points=[[0,0.5],[1,0.5]];portConstraint=eastwest;" vertex="1" parent="Ehaus5VikyLSaYL8oiBz-0">
          <mxGeometry y="430" width="220" height="22" as="geometry" />
        </mxCell>
        <mxCell id="Ehaus5VikyLSaYL8oiBz-22" value="+ status: String&#xa;" style="text;strokeColor=none;fillColor=none;align=left;verticalAlign=top;spacingLeft=4;spacingRight=4;overflow=hidden;rotatable=0;points=[[0,0.5],[1,0.5]];portConstraint=eastwest;" vertex="1" parent="Ehaus5VikyLSaYL8oiBz-0">
          <mxGeometry y="452" width="220" height="22" as="geometry" />
        </mxCell>
        <mxCell id="Ehaus5VikyLSaYL8oiBz-24" value="+ tags: List&lt;String&gt;&#xa;" style="text;strokeColor=none;fillColor=none;align=left;verticalAlign=top;spacingLeft=4;spacingRight=4;overflow=hidden;rotatable=0;points=[[0,0.5],[1,0.5]];portConstraint=eastwest;" vertex="1" parent="Ehaus5VikyLSaYL8oiBz-0">
          <mxGeometry y="474" width="220" height="22" as="geometry" />
        </mxCell>
        <mxCell id="Ehaus5VikyLSaYL8oiBz-26" value="+ create_at: String&#xa;" style="text;strokeColor=none;fillColor=none;align=left;verticalAlign=top;spacingLeft=4;spacingRight=4;overflow=hidden;rotatable=0;points=[[0,0.5],[1,0.5]];portConstraint=eastwest;" vertex="1" parent="Ehaus5VikyLSaYL8oiBz-0">
          <mxGeometry y="496" width="220" height="22" as="geometry" />
        </mxCell>
        <mxCell id="Ehaus5VikyLSaYL8oiBz-25" value="+ update_at: String&#xa;" style="text;strokeColor=none;fillColor=none;align=left;verticalAlign=top;spacingLeft=4;spacingRight=4;overflow=hidden;rotatable=0;points=[[0,0.5],[1,0.5]];portConstraint=eastwest;" vertex="1" parent="Ehaus5VikyLSaYL8oiBz-0">
          <mxGeometry y="518" width="220" height="22" as="geometry" />
        </mxCell>
        <mxCell id="Ehaus5VikyLSaYL8oiBz-27" value="+ ipv4_address_scope: String&#xa;" style="text;strokeColor=none;fillColor=none;align=left;verticalAlign=top;spacingLeft=4;spacingRight=4;overflow=hidden;rotatable=0;points=[[0,0.5],[1,0.5]];portConstraint=eastwest;" vertex="1" parent="Ehaus5VikyLSaYL8oiBz-0">
          <mxGeometry y="540" width="220" height="22" as="geometry" />
        </mxCell>
        <mxCell id="Ehaus5VikyLSaYL8oiBz-23" value="+ ipv6_address_scope: String&#xa;" style="text;strokeColor=none;fillColor=none;align=left;verticalAlign=top;spacingLeft=4;spacingRight=4;overflow=hidden;rotatable=0;points=[[0,0.5],[1,0.5]];portConstraint=eastwest;" vertex="1" parent="Ehaus5VikyLSaYL8oiBz-0">
          <mxGeometry y="562" width="220" height="22" as="geometry" />
        </mxCell>
        <mxCell id="Ehaus5VikyLSaYL8oiBz-28" value="+ l2_adjacency: String" style="text;strokeColor=none;fillColor=none;align=left;verticalAlign=top;spacingLeft=4;spacingRight=4;overflow=hidden;rotatable=0;points=[[0,0.5],[1,0.5]];portConstraint=eastwest;" vertex="1" parent="Ehaus5VikyLSaYL8oiBz-0">
          <mxGeometry y="584" width="220" height="22" as="geometry" />
        </mxCell>
        <mxCell id="Ehaus5VikyLSaYL8oiBz-31" value="+ subnets: List&lt;String&gt;" style="text;strokeColor=none;fillColor=none;align=left;verticalAlign=top;spacingLeft=4;spacingRight=4;overflow=hidden;rotatable=0;points=[[0,0.5],[1,0.5]];portConstraint=eastwest;" vertex="1" parent="Ehaus5VikyLSaYL8oiBz-0">
          <mxGeometry y="606" width="220" height="22" as="geometry" />
        </mxCell>
        <mxCell id="Ehaus5VikyLSaYL8oiBz-32" value="SegmentInfoInVpc" style="swimlane;fontStyle=0;childLayout=stackLayout;horizontal=1;startSize=26;fillColor=none;horizontalStack=0;resizeParent=1;resizeParentMax=0;resizeLast=0;collapsible=1;marginBottom=0;" vertex="1" parent="WIyWlLk6GJQsqaUBKTNV-1">
          <mxGeometry x="560" y="300" width="200" height="104" as="geometry">
            <mxRectangle x="530" y="300" width="130" height="26" as="alternateBounds" />
          </mxGeometry>
        </mxCell>
        <mxCell id="Ehaus5VikyLSaYL8oiBz-33" value="+ provider:network_type: String" style="text;strokeColor=none;fillColor=none;align=left;verticalAlign=top;spacingLeft=4;spacingRight=4;overflow=hidden;rotatable=0;points=[[0,0.5],[1,0.5]];portConstraint=eastwest;" vertex="1" parent="Ehaus5VikyLSaYL8oiBz-32">
          <mxGeometry y="26" width="200" height="26" as="geometry" />
        </mxCell>
        <mxCell id="Ehaus5VikyLSaYL8oiBz-34" value="+ provider:physical_network: String" style="text;strokeColor=none;fillColor=none;align=left;verticalAlign=top;spacingLeft=4;spacingRight=4;overflow=hidden;rotatable=0;points=[[0,0.5],[1,0.5]];portConstraint=eastwest;" vertex="1" parent="Ehaus5VikyLSaYL8oiBz-32">
          <mxGeometry y="52" width="200" height="26" as="geometry" />
        </mxCell>
        <mxCell id="Ehaus5VikyLSaYL8oiBz-37" value="+ provider:segmentation_id: Integer" style="text;strokeColor=none;fillColor=none;align=left;verticalAlign=top;spacingLeft=4;spacingRight=4;overflow=hidden;rotatable=0;points=[[0,0.5],[1,0.5]];portConstraint=eastwest;" vertex="1" parent="Ehaus5VikyLSaYL8oiBz-32">
          <mxGeometry y="78" width="200" height="26" as="geometry" />
        </mxCell>
        <mxCell id="Ehaus5VikyLSaYL8oiBz-56" value="Extends" style="endArrow=block;endSize=16;endFill=0;html=1;exitX=0.5;exitY=0;exitDx=0;exitDy=0;" edge="1" parent="WIyWlLk6GJQsqaUBKTNV-1" source="Ehaus5VikyLSaYL8oiBz-0">
          <mxGeometry width="160" relative="1" as="geometry">
            <mxPoint x="300" y="30" as="sourcePoint" />
            <mxPoint x="400" y="50" as="targetPoint" />
          </mxGeometry>
        </mxCell>
        <mxCell id="Ehaus5VikyLSaYL8oiBz-57" value="" style="endArrow=open;shadow=0;strokeWidth=1;rounded=0;endFill=1;edgeStyle=elbowEdgeStyle;elbow=vertical;" edge="1" parent="WIyWlLk6GJQsqaUBKTNV-1" source="Ehaus5VikyLSaYL8oiBz-12" target="Ehaus5VikyLSaYL8oiBz-34">
          <mxGeometry x="0.5" y="41" relative="1" as="geometry">
            <mxPoint x="510" y="365" as="sourcePoint" />
            <mxPoint x="630" y="339" as="targetPoint" />
            <mxPoint x="-40" y="32" as="offset" />
            <Array as="points">
              <mxPoint x="560" y="365" />
              <mxPoint x="600" y="250" />
            </Array>
          </mxGeometry>
        </mxCell>
        <mxCell id="Ehaus5VikyLSaYL8oiBz-58" value="1" style="resizable=0;align=left;verticalAlign=bottom;labelBackgroundColor=none;fontSize=12;" connectable="0" vertex="1" parent="Ehaus5VikyLSaYL8oiBz-57">
          <mxGeometry x="-1" relative="1" as="geometry">
            <mxPoint y="1" as="offset" />
          </mxGeometry>
        </mxCell>
        <mxCell id="Ehaus5VikyLSaYL8oiBz-59" value="*" style="resizable=0;align=right;verticalAlign=bottom;labelBackgroundColor=none;fontSize=12;" connectable="0" vertex="1" parent="Ehaus5VikyLSaYL8oiBz-57">
          <mxGeometry x="1" relative="1" as="geometry">
            <mxPoint x="-7" y="4" as="offset" />
          </mxGeometry>
        </mxCell>
        <mxCell id="Ehaus5VikyLSaYL8oiBz-61" value="VpcsWebJson" style="swimlane;fontStyle=0;childLayout=stackLayout;horizontal=1;startSize=26;fillColor=none;horizontalStack=0;resizeParent=1;resizeParentMax=0;resizeLast=0;collapsible=1;marginBottom=0;" vertex="1" parent="WIyWlLk6GJQsqaUBKTNV-1">
          <mxGeometry x="80" y="120" width="170" height="52" as="geometry" />
        </mxCell>
        <mxCell id="Ehaus5VikyLSaYL8oiBz-62" value="+ vpcs: ArrayList&lt;VpcEntity&gt;" style="text;strokeColor=none;fillColor=none;align=left;verticalAlign=top;spacingLeft=4;spacingRight=4;overflow=hidden;rotatable=0;points=[[0,0.5],[1,0.5]];portConstraint=eastwest;" vertex="1" parent="Ehaus5VikyLSaYL8oiBz-61">
          <mxGeometry y="26" width="170" height="26" as="geometry" />
        </mxCell>
        <mxCell id="Ehaus5VikyLSaYL8oiBz-70" value="" style="endArrow=open;shadow=0;strokeWidth=1;rounded=0;endFill=1;edgeStyle=elbowEdgeStyle;elbow=vertical;" edge="1" parent="WIyWlLk6GJQsqaUBKTNV-1" source="Ehaus5VikyLSaYL8oiBz-62" target="Ehaus5VikyLSaYL8oiBz-0">
          <mxGeometry x="0.5" y="41" relative="1" as="geometry">
            <mxPoint x="160" y="200" as="sourcePoint" />
            <mxPoint x="260" y="200" as="targetPoint" />
            <mxPoint x="-40" y="32" as="offset" />
            <Array as="points">
              <mxPoint x="260" y="159" />
              <mxPoint x="250" y="180" />
              <mxPoint x="270" y="159" />
              <mxPoint x="260" y="139" />
              <mxPoint x="280" y="85" />
            </Array>
          </mxGeometry>
        </mxCell>
        <mxCell id="Ehaus5VikyLSaYL8oiBz-71" value="1" style="resizable=0;align=left;verticalAlign=bottom;labelBackgroundColor=none;fontSize=12;" connectable="0" vertex="1" parent="Ehaus5VikyLSaYL8oiBz-70">
          <mxGeometry x="-1" relative="1" as="geometry">
            <mxPoint y="4" as="offset" />
          </mxGeometry>
        </mxCell>
        <mxCell id="Ehaus5VikyLSaYL8oiBz-72" value="*" style="resizable=0;align=right;verticalAlign=bottom;labelBackgroundColor=none;fontSize=12;" connectable="0" vertex="1" parent="Ehaus5VikyLSaYL8oiBz-70">
          <mxGeometry x="1" relative="1" as="geometry">
            <mxPoint x="-7" y="4" as="offset" />
          </mxGeometry>
        </mxCell>
        <mxCell id="Ehaus5VikyLSaYL8oiBz-74" value="VpcWebJson" style="swimlane;fontStyle=0;childLayout=stackLayout;horizontal=1;startSize=26;fillColor=none;horizontalStack=0;resizeParent=1;resizeParentMax=0;resizeLast=0;collapsible=1;marginBottom=0;" vertex="1" parent="WIyWlLk6GJQsqaUBKTNV-1">
          <mxGeometry x="80" y="214" width="170" height="52" as="geometry" />
        </mxCell>
        <mxCell id="Ehaus5VikyLSaYL8oiBz-75" value="+ network: VpcEntity" style="text;strokeColor=none;fillColor=none;align=left;verticalAlign=top;spacingLeft=4;spacingRight=4;overflow=hidden;rotatable=0;points=[[0,0.5],[1,0.5]];portConstraint=eastwest;" vertex="1" parent="Ehaus5VikyLSaYL8oiBz-74">
          <mxGeometry y="26" width="170" height="26" as="geometry" />
        </mxCell>
        <mxCell id="Ehaus5VikyLSaYL8oiBz-76" value="" style="endArrow=open;shadow=0;strokeWidth=1;rounded=0;endFill=1;elbow=vertical;edgeStyle=orthogonalEdgeStyle;" edge="1" parent="WIyWlLk6GJQsqaUBKTNV-1" source="Ehaus5VikyLSaYL8oiBz-75" target="Ehaus5VikyLSaYL8oiBz-7">
          <mxGeometry x="0.5" y="41" relative="1" as="geometry">
            <mxPoint x="230" y="250" as="sourcePoint" />
            <mxPoint x="160" y="350" as="targetPoint" />
            <mxPoint x="-40" y="32" as="offset" />
          </mxGeometry>
        </mxCell>
        <mxCell id="Ehaus5VikyLSaYL8oiBz-77" value="1" style="resizable=0;align=left;verticalAlign=bottom;labelBackgroundColor=none;fontSize=12;" connectable="0" vertex="1" parent="Ehaus5VikyLSaYL8oiBz-76">
          <mxGeometry x="-1" relative="1" as="geometry">
            <mxPoint y="4" as="offset" />
          </mxGeometry>
        </mxCell>
        <mxCell id="Ehaus5VikyLSaYL8oiBz-78" value="1" style="resizable=0;align=right;verticalAlign=bottom;labelBackgroundColor=none;fontSize=12;" connectable="0" vertex="1" parent="Ehaus5VikyLSaYL8oiBz-76">
          <mxGeometry x="1" relative="1" as="geometry">
            <mxPoint x="-7" y="4" as="offset" />
          </mxGeometry>
        </mxCell>
        <mxCell id="Ehaus5VikyLSaYL8oiBz-79" value="&lt;p style=&quot;margin: 0px ; margin-top: 4px ; text-align: center&quot;&gt;&lt;b&gt;CustomerResource&lt;/b&gt;&lt;/p&gt;&lt;hr size=&quot;1&quot;&gt;&lt;div style=&quot;height: 2px&quot;&gt;&lt;/div&gt;" style="verticalAlign=top;align=left;overflow=fill;fontSize=12;fontFamily=Helvetica;html=1;" vertex="1" parent="WIyWlLk6GJQsqaUBKTNV-1">
          <mxGeometry x="330" y="20" width="140" height="30" as="geometry" />
        </mxCell>
        <mxCell id="Ehaus5VikyLSaYL8oiBz-80" value="VpcWebRequest" style="swimlane;fontStyle=0;childLayout=stackLayout;horizontal=1;startSize=26;fillColor=none;horizontalStack=0;resizeParent=1;resizeParentMax=0;resizeLast=0;collapsible=1;marginBottom=0;" vertex="1" parent="WIyWlLk6GJQsqaUBKTNV-1">
          <mxGeometry x="260" y="900" width="220" height="606" as="geometry">
            <mxRectangle x="260" y="900" width="120" height="26" as="alternateBounds" />
          </mxGeometry>
        </mxCell>
        <mxCell id="Ehaus5VikyLSaYL8oiBz-81" value="+ cidr: String" style="text;strokeColor=none;fillColor=none;align=left;verticalAlign=top;spacingLeft=4;spacingRight=4;overflow=hidden;rotatable=0;points=[[0,0.5],[1,0.5]];portConstraint=eastwest;" vertex="1" parent="Ehaus5VikyLSaYL8oiBz-80">
          <mxGeometry y="26" width="220" height="26" as="geometry" />
        </mxCell>
        <mxCell id="Ehaus5VikyLSaYL8oiBz-82" value="+ routes: List&lt;RouteEntity&gt;" style="text;strokeColor=none;fillColor=none;align=left;verticalAlign=top;spacingLeft=4;spacingRight=4;overflow=hidden;rotatable=0;points=[[0,0.5],[1,0.5]];portConstraint=eastwest;" vertex="1" parent="Ehaus5VikyLSaYL8oiBz-80">
          <mxGeometry y="52" width="220" height="26" as="geometry" />
        </mxCell>
        <mxCell id="Ehaus5VikyLSaYL8oiBz-84" value="+ admin_state_up: boolean&#xa;" style="text;strokeColor=none;fillColor=none;align=left;verticalAlign=top;spacingLeft=4;spacingRight=4;overflow=hidden;rotatable=0;points=[[0,0.5],[1,0.5]];portConstraint=eastwest;" vertex="1" parent="Ehaus5VikyLSaYL8oiBz-80">
          <mxGeometry y="78" width="220" height="22" as="geometry" />
        </mxCell>
        <mxCell id="Ehaus5VikyLSaYL8oiBz-85" value="+ dns_domain: String&#xa;" style="text;strokeColor=none;fillColor=none;align=left;verticalAlign=top;spacingLeft=4;spacingRight=4;overflow=hidden;rotatable=0;points=[[0,0.5],[1,0.5]];portConstraint=eastwest;" vertex="1" parent="Ehaus5VikyLSaYL8oiBz-80">
          <mxGeometry y="100" width="220" height="22" as="geometry" />
        </mxCell>
        <mxCell id="Ehaus5VikyLSaYL8oiBz-86" value="+ mtu: Integer&#xa;" style="text;strokeColor=none;fillColor=none;align=left;verticalAlign=top;spacingLeft=4;spacingRight=4;overflow=hidden;rotatable=0;points=[[0,0.5],[1,0.5]];portConstraint=eastwest;" vertex="1" parent="Ehaus5VikyLSaYL8oiBz-80">
          <mxGeometry y="122" width="220" height="22" as="geometry" />
        </mxCell>
        <mxCell id="Ehaus5VikyLSaYL8oiBz-87" value="+ port_security_enabled: boolean&#xa;" style="text;strokeColor=none;fillColor=none;align=left;verticalAlign=top;spacingLeft=4;spacingRight=4;overflow=hidden;rotatable=0;points=[[0,0.5],[1,0.5]];portConstraint=eastwest;" vertex="1" parent="Ehaus5VikyLSaYL8oiBz-80">
          <mxGeometry y="144" width="220" height="22" as="geometry" />
        </mxCell>
        <mxCell id="Ehaus5VikyLSaYL8oiBz-88" value="+ provider:network_type: String&#xa;" style="text;strokeColor=none;fillColor=none;align=left;verticalAlign=top;spacingLeft=4;spacingRight=4;overflow=hidden;rotatable=0;points=[[0,0.5],[1,0.5]];portConstraint=eastwest;" vertex="1" parent="Ehaus5VikyLSaYL8oiBz-80">
          <mxGeometry y="166" width="220" height="22" as="geometry" />
        </mxCell>
        <mxCell id="Ehaus5VikyLSaYL8oiBz-89" value="+ provider:physical_network: String&#xa;" style="text;strokeColor=none;fillColor=none;align=left;verticalAlign=top;spacingLeft=4;spacingRight=4;overflow=hidden;rotatable=0;points=[[0,0.5],[1,0.5]];portConstraint=eastwest;" vertex="1" parent="Ehaus5VikyLSaYL8oiBz-80">
          <mxGeometry y="188" width="220" height="22" as="geometry" />
        </mxCell>
        <mxCell id="Ehaus5VikyLSaYL8oiBz-90" value="+ provider:segmentation_id: Integer&#xa;" style="text;strokeColor=none;fillColor=none;align=left;verticalAlign=top;spacingLeft=4;spacingRight=4;overflow=hidden;rotatable=0;points=[[0,0.5],[1,0.5]];portConstraint=eastwest;" vertex="1" parent="Ehaus5VikyLSaYL8oiBz-80">
          <mxGeometry y="210" width="220" height="22" as="geometry" />
        </mxCell>
        <mxCell id="Ehaus5VikyLSaYL8oiBz-91" value="+ router:external: boolean" style="text;strokeColor=none;fillColor=none;align=left;verticalAlign=top;spacingLeft=4;spacingRight=4;overflow=hidden;rotatable=0;points=[[0,0.5],[1,0.5]];portConstraint=eastwest;" vertex="1" parent="Ehaus5VikyLSaYL8oiBz-80">
          <mxGeometry y="232" width="220" height="22" as="geometry" />
        </mxCell>
        <mxCell id="Ehaus5VikyLSaYL8oiBz-92" value="+ segments: List&lt;SegmentInfoInVpc&gt;&#xa;" style="text;strokeColor=none;fillColor=none;align=left;verticalAlign=top;spacingLeft=4;spacingRight=4;overflow=hidden;rotatable=0;points=[[0,0.5],[1,0.5]];portConstraint=eastwest;" vertex="1" parent="Ehaus5VikyLSaYL8oiBz-80">
          <mxGeometry y="254" width="220" height="22" as="geometry" />
        </mxCell>
        <mxCell id="Ehaus5VikyLSaYL8oiBz-93" value="+ shared: boolean&#xa;" style="text;strokeColor=none;fillColor=none;align=left;verticalAlign=top;spacingLeft=4;spacingRight=4;overflow=hidden;rotatable=0;points=[[0,0.5],[1,0.5]];portConstraint=eastwest;" vertex="1" parent="Ehaus5VikyLSaYL8oiBz-80">
          <mxGeometry y="276" width="220" height="22" as="geometry" />
        </mxCell>
        <mxCell id="Ehaus5VikyLSaYL8oiBz-38" value="+ tenant_id: String" style="text;strokeColor=none;fillColor=none;align=left;verticalAlign=top;spacingLeft=4;spacingRight=4;overflow=hidden;rotatable=0;points=[[0,0.5],[1,0.5]];portConstraint=eastwest;" vertex="1" parent="Ehaus5VikyLSaYL8oiBz-80">
          <mxGeometry y="298" width="220" height="26" as="geometry" />
        </mxCell>
        <mxCell id="Ehaus5VikyLSaYL8oiBz-94" value="+ vlan_transparent: boolean&#xa;" style="text;strokeColor=none;fillColor=none;align=left;verticalAlign=top;spacingLeft=4;spacingRight=4;overflow=hidden;rotatable=0;points=[[0,0.5],[1,0.5]];portConstraint=eastwest;" vertex="1" parent="Ehaus5VikyLSaYL8oiBz-80">
          <mxGeometry y="324" width="220" height="22" as="geometry" />
        </mxCell>
        <mxCell id="Ehaus5VikyLSaYL8oiBz-95" value="+ is_default: boolean&#xa;" style="text;strokeColor=none;fillColor=none;align=left;verticalAlign=top;spacingLeft=4;spacingRight=4;overflow=hidden;rotatable=0;points=[[0,0.5],[1,0.5]];portConstraint=eastwest;" vertex="1" parent="Ehaus5VikyLSaYL8oiBz-80">
          <mxGeometry y="346" width="220" height="22" as="geometry" />
        </mxCell>
        <mxCell id="Ehaus5VikyLSaYL8oiBz-96" value="+ availability_zone_hints: List&lt;String&gt;&#xa;" style="text;strokeColor=none;fillColor=none;align=left;verticalAlign=top;spacingLeft=4;spacingRight=4;overflow=hidden;rotatable=0;points=[[0,0.5],[1,0.5]];portConstraint=eastwest;" vertex="1" parent="Ehaus5VikyLSaYL8oiBz-80">
          <mxGeometry y="368" width="220" height="22" as="geometry" />
        </mxCell>
        <mxCell id="Ehaus5VikyLSaYL8oiBz-97" value="+ availability_zones: List&lt;String&gt;&#xa;" style="text;strokeColor=none;fillColor=none;align=left;verticalAlign=top;spacingLeft=4;spacingRight=4;overflow=hidden;rotatable=0;points=[[0,0.5],[1,0.5]];portConstraint=eastwest;" vertex="1" parent="Ehaus5VikyLSaYL8oiBz-80">
          <mxGeometry y="390" width="220" height="22" as="geometry" />
        </mxCell>
        <mxCell id="Ehaus5VikyLSaYL8oiBz-99" value="+ revision_number: Integer&#xa;" style="text;strokeColor=none;fillColor=none;align=left;verticalAlign=top;spacingLeft=4;spacingRight=4;overflow=hidden;rotatable=0;points=[[0,0.5],[1,0.5]];portConstraint=eastwest;" vertex="1" parent="Ehaus5VikyLSaYL8oiBz-80">
          <mxGeometry y="412" width="220" height="18" as="geometry" />
        </mxCell>
        <mxCell id="Ehaus5VikyLSaYL8oiBz-100" value="+ status: String&#xa;" style="text;strokeColor=none;fillColor=none;align=left;verticalAlign=top;spacingLeft=4;spacingRight=4;overflow=hidden;rotatable=0;points=[[0,0.5],[1,0.5]];portConstraint=eastwest;" vertex="1" parent="Ehaus5VikyLSaYL8oiBz-80">
          <mxGeometry y="430" width="220" height="22" as="geometry" />
        </mxCell>
        <mxCell id="Ehaus5VikyLSaYL8oiBz-101" value="+ tags: List&lt;String&gt;&#xa;" style="text;strokeColor=none;fillColor=none;align=left;verticalAlign=top;spacingLeft=4;spacingRight=4;overflow=hidden;rotatable=0;points=[[0,0.5],[1,0.5]];portConstraint=eastwest;" vertex="1" parent="Ehaus5VikyLSaYL8oiBz-80">
          <mxGeometry y="452" width="220" height="22" as="geometry" />
        </mxCell>
        <mxCell id="Ehaus5VikyLSaYL8oiBz-102" value="+ tags-any: String&#xa;" style="text;strokeColor=none;fillColor=none;align=left;verticalAlign=top;spacingLeft=4;spacingRight=4;overflow=hidden;rotatable=0;points=[[0,0.5],[1,0.5]];portConstraint=eastwest;" vertex="1" parent="Ehaus5VikyLSaYL8oiBz-80">
          <mxGeometry y="474" width="220" height="22" as="geometry" />
        </mxCell>
        <mxCell id="Ehaus5VikyLSaYL8oiBz-103" value="+ not-tags: String&#xa;" style="text;strokeColor=none;fillColor=none;align=left;verticalAlign=top;spacingLeft=4;spacingRight=4;overflow=hidden;rotatable=0;points=[[0,0.5],[1,0.5]];portConstraint=eastwest;" vertex="1" parent="Ehaus5VikyLSaYL8oiBz-80">
          <mxGeometry y="496" width="220" height="22" as="geometry" />
        </mxCell>
        <mxCell id="Ehaus5VikyLSaYL8oiBz-104" value="+ not-tags-any: String&#xa;" style="text;strokeColor=none;fillColor=none;align=left;verticalAlign=top;spacingLeft=4;spacingRight=4;overflow=hidden;rotatable=0;points=[[0,0.5],[1,0.5]];portConstraint=eastwest;" vertex="1" parent="Ehaus5VikyLSaYL8oiBz-80">
          <mxGeometry y="518" width="220" height="22" as="geometry" />
        </mxCell>
        <mxCell id="Ehaus5VikyLSaYL8oiBz-105" value="+ fields: String&#xa;" style="text;strokeColor=none;fillColor=none;align=left;verticalAlign=top;spacingLeft=4;spacingRight=4;overflow=hidden;rotatable=0;points=[[0,0.5],[1,0.5]];portConstraint=eastwest;" vertex="1" parent="Ehaus5VikyLSaYL8oiBz-80">
          <mxGeometry y="540" width="220" height="22" as="geometry" />
        </mxCell>
        <mxCell id="Ehaus5VikyLSaYL8oiBz-106" value="+ sort_dir: String" style="text;strokeColor=none;fillColor=none;align=left;verticalAlign=top;spacingLeft=4;spacingRight=4;overflow=hidden;rotatable=0;points=[[0,0.5],[1,0.5]];portConstraint=eastwest;" vertex="1" parent="Ehaus5VikyLSaYL8oiBz-80">
          <mxGeometry y="562" width="220" height="22" as="geometry" />
        </mxCell>
        <mxCell id="Ehaus5VikyLSaYL8oiBz-107" value="+ sort_key: String" style="text;strokeColor=none;fillColor=none;align=left;verticalAlign=top;spacingLeft=4;spacingRight=4;overflow=hidden;rotatable=0;points=[[0,0.5],[1,0.5]];portConstraint=eastwest;" vertex="1" parent="Ehaus5VikyLSaYL8oiBz-80">
          <mxGeometry y="584" width="220" height="22" as="geometry" />
        </mxCell>
        <mxCell id="Ehaus5VikyLSaYL8oiBz-108" value="Extends" style="endArrow=block;endSize=16;endFill=0;html=1;" edge="1" parent="WIyWlLk6GJQsqaUBKTNV-1">
          <mxGeometry width="160" relative="1" as="geometry">
            <mxPoint x="370" y="900" as="sourcePoint" />
            <mxPoint x="370" y="840" as="targetPoint" />
          </mxGeometry>
        </mxCell>
        <mxCell id="Ehaus5VikyLSaYL8oiBz-109" value="&lt;p style=&quot;margin: 0px ; margin-top: 4px ; text-align: center&quot;&gt;&lt;b&gt;CustomerResource&lt;/b&gt;&lt;/p&gt;&lt;hr size=&quot;1&quot;&gt;&lt;div style=&quot;height: 2px&quot;&gt;&lt;/div&gt;" style="verticalAlign=top;align=left;overflow=fill;fontSize=12;fontFamily=Helvetica;html=1;" vertex="1" parent="WIyWlLk6GJQsqaUBKTNV-1">
          <mxGeometry x="300" y="810" width="140" height="30" as="geometry" />
        </mxCell>
        <mxCell id="Ehaus5VikyLSaYL8oiBz-119" value="VpcWebRequestJson" style="swimlane;fontStyle=0;childLayout=stackLayout;horizontal=1;startSize=26;fillColor=none;horizontalStack=0;resizeParent=1;resizeParentMax=0;resizeLast=0;collapsible=1;marginBottom=0;" vertex="1" parent="WIyWlLk6GJQsqaUBKTNV-1">
          <mxGeometry x="50" y="900" width="170" height="52" as="geometry" />
        </mxCell>
        <mxCell id="Ehaus5VikyLSaYL8oiBz-120" value="+ network: VpcWebRequest" style="text;strokeColor=none;fillColor=none;align=left;verticalAlign=top;spacingLeft=4;spacingRight=4;overflow=hidden;rotatable=0;points=[[0,0.5],[1,0.5]];portConstraint=eastwest;" vertex="1" parent="Ehaus5VikyLSaYL8oiBz-119">
          <mxGeometry y="26" width="170" height="26" as="geometry" />
        </mxCell>
        <mxCell id="Ehaus5VikyLSaYL8oiBz-121" value="" style="endArrow=open;shadow=0;strokeWidth=1;rounded=0;endFill=1;edgeStyle=elbowEdgeStyle;elbow=vertical;" edge="1" parent="WIyWlLk6GJQsqaUBKTNV-1" source="Ehaus5VikyLSaYL8oiBz-120" target="Ehaus5VikyLSaYL8oiBz-81">
          <mxGeometry x="0.5" y="41" relative="1" as="geometry">
            <mxPoint x="200" y="940" as="sourcePoint" />
            <mxPoint x="260" y="940" as="targetPoint" />
            <mxPoint x="-40" y="32" as="offset" />
            <Array as="points">
              <mxPoint x="230" y="940" />
              <mxPoint x="250" y="886" />
            </Array>
          </mxGeometry>
        </mxCell>
        <mxCell id="Ehaus5VikyLSaYL8oiBz-122" value="1" style="resizable=0;align=left;verticalAlign=bottom;labelBackgroundColor=none;fontSize=12;" connectable="0" vertex="1" parent="Ehaus5VikyLSaYL8oiBz-121">
          <mxGeometry x="-1" relative="1" as="geometry">
            <mxPoint y="4" as="offset" />
          </mxGeometry>
        </mxCell>
        <mxCell id="Ehaus5VikyLSaYL8oiBz-123" value="1" style="resizable=0;align=right;verticalAlign=bottom;labelBackgroundColor=none;fontSize=12;" connectable="0" vertex="1" parent="Ehaus5VikyLSaYL8oiBz-121">
          <mxGeometry x="1" relative="1" as="geometry">
            <mxPoint x="-7" y="4" as="offset" />
          </mxGeometry>
        </mxCell>
        <mxCell id="Ehaus5VikyLSaYL8oiBz-124" value="VpcWebRequestObject" style="swimlane;fontStyle=0;childLayout=stackLayout;horizontal=1;startSize=26;fillColor=none;horizontalStack=0;resizeParent=1;resizeParentMax=0;resizeLast=0;collapsible=1;marginBottom=0;" vertex="1" parent="WIyWlLk6GJQsqaUBKTNV-1">
          <mxGeometry x="530" y="900" width="220" height="562" as="geometry" />
        </mxCell>
        <mxCell id="Ehaus5VikyLSaYL8oiBz-125" value="+ cidr: String" style="text;strokeColor=none;fillColor=none;align=left;verticalAlign=top;spacingLeft=4;spacingRight=4;overflow=hidden;rotatable=0;points=[[0,0.5],[1,0.5]];portConstraint=eastwest;" vertex="1" parent="Ehaus5VikyLSaYL8oiBz-124">
          <mxGeometry y="26" width="220" height="26" as="geometry" />
        </mxCell>
        <mxCell id="Ehaus5VikyLSaYL8oiBz-126" value="+ routes: List&lt;RouteEntity&gt;" style="text;strokeColor=none;fillColor=none;align=left;verticalAlign=top;spacingLeft=4;spacingRight=4;overflow=hidden;rotatable=0;points=[[0,0.5],[1,0.5]];portConstraint=eastwest;" vertex="1" parent="Ehaus5VikyLSaYL8oiBz-124">
          <mxGeometry y="52" width="220" height="26" as="geometry" />
        </mxCell>
        <mxCell id="Ehaus5VikyLSaYL8oiBz-128" value="+ admin_state_up: boolean&#xa;" style="text;strokeColor=none;fillColor=none;align=left;verticalAlign=top;spacingLeft=4;spacingRight=4;overflow=hidden;rotatable=0;points=[[0,0.5],[1,0.5]];portConstraint=eastwest;" vertex="1" parent="Ehaus5VikyLSaYL8oiBz-124">
          <mxGeometry y="78" width="220" height="22" as="geometry" />
        </mxCell>
        <mxCell id="Ehaus5VikyLSaYL8oiBz-129" value="+ dns_domain: String&#xa;" style="text;strokeColor=none;fillColor=none;align=left;verticalAlign=top;spacingLeft=4;spacingRight=4;overflow=hidden;rotatable=0;points=[[0,0.5],[1,0.5]];portConstraint=eastwest;" vertex="1" parent="Ehaus5VikyLSaYL8oiBz-124">
          <mxGeometry y="100" width="220" height="22" as="geometry" />
        </mxCell>
        <mxCell id="Ehaus5VikyLSaYL8oiBz-130" value="+ mtu: Integer&#xa;" style="text;strokeColor=none;fillColor=none;align=left;verticalAlign=top;spacingLeft=4;spacingRight=4;overflow=hidden;rotatable=0;points=[[0,0.5],[1,0.5]];portConstraint=eastwest;" vertex="1" parent="Ehaus5VikyLSaYL8oiBz-124">
          <mxGeometry y="122" width="220" height="22" as="geometry" />
        </mxCell>
        <mxCell id="Ehaus5VikyLSaYL8oiBz-131" value="+ port_security_enabled: boolean&#xa;" style="text;strokeColor=none;fillColor=none;align=left;verticalAlign=top;spacingLeft=4;spacingRight=4;overflow=hidden;rotatable=0;points=[[0,0.5],[1,0.5]];portConstraint=eastwest;" vertex="1" parent="Ehaus5VikyLSaYL8oiBz-124">
          <mxGeometry y="144" width="220" height="22" as="geometry" />
        </mxCell>
        <mxCell id="Ehaus5VikyLSaYL8oiBz-132" value="+ provider:network_type: String&#xa;" style="text;strokeColor=none;fillColor=none;align=left;verticalAlign=top;spacingLeft=4;spacingRight=4;overflow=hidden;rotatable=0;points=[[0,0.5],[1,0.5]];portConstraint=eastwest;" vertex="1" parent="Ehaus5VikyLSaYL8oiBz-124">
          <mxGeometry y="166" width="220" height="22" as="geometry" />
        </mxCell>
        <mxCell id="Ehaus5VikyLSaYL8oiBz-133" value="+ provider:physical_network: String&#xa;" style="text;strokeColor=none;fillColor=none;align=left;verticalAlign=top;spacingLeft=4;spacingRight=4;overflow=hidden;rotatable=0;points=[[0,0.5],[1,0.5]];portConstraint=eastwest;" vertex="1" parent="Ehaus5VikyLSaYL8oiBz-124">
          <mxGeometry y="188" width="220" height="22" as="geometry" />
        </mxCell>
        <mxCell id="Ehaus5VikyLSaYL8oiBz-134" value="+ provider:segmentation_id: Integer&#xa;" style="text;strokeColor=none;fillColor=none;align=left;verticalAlign=top;spacingLeft=4;spacingRight=4;overflow=hidden;rotatable=0;points=[[0,0.5],[1,0.5]];portConstraint=eastwest;" vertex="1" parent="Ehaus5VikyLSaYL8oiBz-124">
          <mxGeometry y="210" width="220" height="22" as="geometry" />
        </mxCell>
        <mxCell id="Ehaus5VikyLSaYL8oiBz-135" value="+ router:external: boolean" style="text;strokeColor=none;fillColor=none;align=left;verticalAlign=top;spacingLeft=4;spacingRight=4;overflow=hidden;rotatable=0;points=[[0,0.5],[1,0.5]];portConstraint=eastwest;" vertex="1" parent="Ehaus5VikyLSaYL8oiBz-124">
          <mxGeometry y="232" width="220" height="22" as="geometry" />
        </mxCell>
        <mxCell id="Ehaus5VikyLSaYL8oiBz-136" value="+ segments: List&lt;SegmentInfoInVpc&gt;&#xa;" style="text;strokeColor=none;fillColor=none;align=left;verticalAlign=top;spacingLeft=4;spacingRight=4;overflow=hidden;rotatable=0;points=[[0,0.5],[1,0.5]];portConstraint=eastwest;" vertex="1" parent="Ehaus5VikyLSaYL8oiBz-124">
          <mxGeometry y="254" width="220" height="22" as="geometry" />
        </mxCell>
        <mxCell id="Ehaus5VikyLSaYL8oiBz-137" value="+ shared: boolean&#xa;" style="text;strokeColor=none;fillColor=none;align=left;verticalAlign=top;spacingLeft=4;spacingRight=4;overflow=hidden;rotatable=0;points=[[0,0.5],[1,0.5]];portConstraint=eastwest;" vertex="1" parent="Ehaus5VikyLSaYL8oiBz-124">
          <mxGeometry y="276" width="220" height="22" as="geometry" />
        </mxCell>
        <mxCell id="Ehaus5VikyLSaYL8oiBz-138" value="+ tenant_id: String" style="text;strokeColor=none;fillColor=none;align=left;verticalAlign=top;spacingLeft=4;spacingRight=4;overflow=hidden;rotatable=0;points=[[0,0.5],[1,0.5]];portConstraint=eastwest;" vertex="1" parent="Ehaus5VikyLSaYL8oiBz-124">
          <mxGeometry y="298" width="220" height="26" as="geometry" />
        </mxCell>
        <mxCell id="Ehaus5VikyLSaYL8oiBz-140" value="+ is_default: boolean&#xa;" style="text;strokeColor=none;fillColor=none;align=left;verticalAlign=top;spacingLeft=4;spacingRight=4;overflow=hidden;rotatable=0;points=[[0,0.5],[1,0.5]];portConstraint=eastwest;" vertex="1" parent="Ehaus5VikyLSaYL8oiBz-124">
          <mxGeometry y="324" width="220" height="22" as="geometry" />
        </mxCell>
        <mxCell id="Ehaus5VikyLSaYL8oiBz-141" value="+ availability_zone_hints: List&lt;String&gt;&#xa;" style="text;strokeColor=none;fillColor=none;align=left;verticalAlign=top;spacingLeft=4;spacingRight=4;overflow=hidden;rotatable=0;points=[[0,0.5],[1,0.5]];portConstraint=eastwest;" vertex="1" parent="Ehaus5VikyLSaYL8oiBz-124">
          <mxGeometry y="346" width="220" height="22" as="geometry" />
        </mxCell>
        <mxCell id="Ehaus5VikyLSaYL8oiBz-143" value="+ revision_number: Integer&#xa;" style="text;strokeColor=none;fillColor=none;align=left;verticalAlign=top;spacingLeft=4;spacingRight=4;overflow=hidden;rotatable=0;points=[[0,0.5],[1,0.5]];portConstraint=eastwest;" vertex="1" parent="Ehaus5VikyLSaYL8oiBz-124">
          <mxGeometry y="368" width="220" height="18" as="geometry" />
        </mxCell>
        <mxCell id="Ehaus5VikyLSaYL8oiBz-144" value="+ status: String&#xa;" style="text;strokeColor=none;fillColor=none;align=left;verticalAlign=top;spacingLeft=4;spacingRight=4;overflow=hidden;rotatable=0;points=[[0,0.5],[1,0.5]];portConstraint=eastwest;" vertex="1" parent="Ehaus5VikyLSaYL8oiBz-124">
          <mxGeometry y="386" width="220" height="22" as="geometry" />
        </mxCell>
        <mxCell id="Ehaus5VikyLSaYL8oiBz-145" value="+ tags: List&lt;String&gt;&#xa;" style="text;strokeColor=none;fillColor=none;align=left;verticalAlign=top;spacingLeft=4;spacingRight=4;overflow=hidden;rotatable=0;points=[[0,0.5],[1,0.5]];portConstraint=eastwest;" vertex="1" parent="Ehaus5VikyLSaYL8oiBz-124">
          <mxGeometry y="408" width="220" height="22" as="geometry" />
        </mxCell>
        <mxCell id="Ehaus5VikyLSaYL8oiBz-146" value="+ tags-any: String&#xa;" style="text;strokeColor=none;fillColor=none;align=left;verticalAlign=top;spacingLeft=4;spacingRight=4;overflow=hidden;rotatable=0;points=[[0,0.5],[1,0.5]];portConstraint=eastwest;" vertex="1" parent="Ehaus5VikyLSaYL8oiBz-124">
          <mxGeometry y="430" width="220" height="22" as="geometry" />
        </mxCell>
        <mxCell id="Ehaus5VikyLSaYL8oiBz-147" value="+ not-tags: String&#xa;" style="text;strokeColor=none;fillColor=none;align=left;verticalAlign=top;spacingLeft=4;spacingRight=4;overflow=hidden;rotatable=0;points=[[0,0.5],[1,0.5]];portConstraint=eastwest;" vertex="1" parent="Ehaus5VikyLSaYL8oiBz-124">
          <mxGeometry y="452" width="220" height="22" as="geometry" />
        </mxCell>
        <mxCell id="Ehaus5VikyLSaYL8oiBz-148" value="+ not-tags-any: String&#xa;" style="text;strokeColor=none;fillColor=none;align=left;verticalAlign=top;spacingLeft=4;spacingRight=4;overflow=hidden;rotatable=0;points=[[0,0.5],[1,0.5]];portConstraint=eastwest;" vertex="1" parent="Ehaus5VikyLSaYL8oiBz-124">
          <mxGeometry y="474" width="220" height="22" as="geometry" />
        </mxCell>
        <mxCell id="Ehaus5VikyLSaYL8oiBz-149" value="+ fields: String&#xa;" style="text;strokeColor=none;fillColor=none;align=left;verticalAlign=top;spacingLeft=4;spacingRight=4;overflow=hidden;rotatable=0;points=[[0,0.5],[1,0.5]];portConstraint=eastwest;" vertex="1" parent="Ehaus5VikyLSaYL8oiBz-124">
          <mxGeometry y="496" width="220" height="22" as="geometry" />
        </mxCell>
        <mxCell id="Ehaus5VikyLSaYL8oiBz-150" value="+ sort_dir: String" style="text;strokeColor=none;fillColor=none;align=left;verticalAlign=top;spacingLeft=4;spacingRight=4;overflow=hidden;rotatable=0;points=[[0,0.5],[1,0.5]];portConstraint=eastwest;" vertex="1" parent="Ehaus5VikyLSaYL8oiBz-124">
          <mxGeometry y="518" width="220" height="22" as="geometry" />
        </mxCell>
        <mxCell id="Ehaus5VikyLSaYL8oiBz-151" value="+ sort_key: String" style="text;strokeColor=none;fillColor=none;align=left;verticalAlign=top;spacingLeft=4;spacingRight=4;overflow=hidden;rotatable=0;points=[[0,0.5],[1,0.5]];portConstraint=eastwest;" vertex="1" parent="Ehaus5VikyLSaYL8oiBz-124">
          <mxGeometry y="540" width="220" height="22" as="geometry" />
        </mxCell>
        <mxCell id="Ehaus5VikyLSaYL8oiBz-152" value="Extends" style="endArrow=block;endSize=16;endFill=0;html=1;" edge="1" parent="WIyWlLk6GJQsqaUBKTNV-1">
          <mxGeometry width="160" relative="1" as="geometry">
            <mxPoint x="640" y="900" as="sourcePoint" />
            <mxPoint x="640" y="840" as="targetPoint" />
          </mxGeometry>
        </mxCell>
        <mxCell id="Ehaus5VikyLSaYL8oiBz-153" value="&lt;p style=&quot;margin: 0px ; margin-top: 4px ; text-align: center&quot;&gt;&lt;b&gt;CustomerResource&lt;/b&gt;&lt;/p&gt;&lt;hr size=&quot;1&quot;&gt;&lt;div style=&quot;height: 2px&quot;&gt;&lt;/div&gt;" style="verticalAlign=top;align=left;overflow=fill;fontSize=12;fontFamily=Helvetica;html=1;" vertex="1" parent="WIyWlLk6GJQsqaUBKTNV-1">
          <mxGeometry x="570" y="810" width="140" height="30" as="geometry" />
        </mxCell>
        <mxCell id="Ehaus5VikyLSaYL8oiBz-154" value="SegmentEntity" style="swimlane;fontStyle=0;childLayout=stackLayout;horizontal=1;startSize=26;fillColor=none;horizontalStack=0;resizeParent=1;resizeParentMax=0;resizeLast=0;collapsible=1;marginBottom=0;" vertex="1" parent="WIyWlLk6GJQsqaUBKTNV-1">
          <mxGeometry x="350" y="1656" width="180" height="234" as="geometry">
            <mxRectangle x="350" y="1656" width="110" height="26" as="alternateBounds" />
          </mxGeometry>
        </mxCell>
        <mxCell id="Ehaus5VikyLSaYL8oiBz-155" value="+ network_id: String" style="text;strokeColor=none;fillColor=none;align=left;verticalAlign=top;spacingLeft=4;spacingRight=4;overflow=hidden;rotatable=0;points=[[0,0.5],[1,0.5]];portConstraint=eastwest;" vertex="1" parent="Ehaus5VikyLSaYL8oiBz-154">
          <mxGeometry y="26" width="180" height="26" as="geometry" />
        </mxCell>
        <mxCell id="Ehaus5VikyLSaYL8oiBz-156" value="+ physical_network: String" style="text;strokeColor=none;fillColor=none;align=left;verticalAlign=top;spacingLeft=4;spacingRight=4;overflow=hidden;rotatable=0;points=[[0,0.5],[1,0.5]];portConstraint=eastwest;" vertex="1" parent="Ehaus5VikyLSaYL8oiBz-154">
          <mxGeometry y="52" width="180" height="26" as="geometry" />
        </mxCell>
        <mxCell id="Ehaus5VikyLSaYL8oiBz-157" value="+ network_type: String" style="text;strokeColor=none;fillColor=none;align=left;verticalAlign=top;spacingLeft=4;spacingRight=4;overflow=hidden;rotatable=0;points=[[0,0.5],[1,0.5]];portConstraint=eastwest;" vertex="1" parent="Ehaus5VikyLSaYL8oiBz-154">
          <mxGeometry y="78" width="180" height="26" as="geometry" />
        </mxCell>
        <mxCell id="Ehaus5VikyLSaYL8oiBz-158" value="+ segmentation_id: Integer" style="text;strokeColor=none;fillColor=none;align=left;verticalAlign=top;spacingLeft=4;spacingRight=4;overflow=hidden;rotatable=0;points=[[0,0.5],[1,0.5]];portConstraint=eastwest;" vertex="1" parent="Ehaus5VikyLSaYL8oiBz-154">
          <mxGeometry y="104" width="180" height="26" as="geometry" />
        </mxCell>
        <mxCell id="Ehaus5VikyLSaYL8oiBz-159" value="+ segmentation_uuid: String" style="text;strokeColor=none;fillColor=none;align=left;verticalAlign=top;spacingLeft=4;spacingRight=4;overflow=hidden;rotatable=0;points=[[0,0.5],[1,0.5]];portConstraint=eastwest;" vertex="1" parent="Ehaus5VikyLSaYL8oiBz-154">
          <mxGeometry y="130" width="180" height="26" as="geometry" />
        </mxCell>
        <mxCell id="Ehaus5VikyLSaYL8oiBz-160" value="+ revision_number: Integer" style="text;strokeColor=none;fillColor=none;align=left;verticalAlign=top;spacingLeft=4;spacingRight=4;overflow=hidden;rotatable=0;points=[[0,0.5],[1,0.5]];portConstraint=eastwest;" vertex="1" parent="Ehaus5VikyLSaYL8oiBz-154">
          <mxGeometry y="156" width="180" height="26" as="geometry" />
        </mxCell>
        <mxCell id="Ehaus5VikyLSaYL8oiBz-161" value="+ create_at: String" style="text;strokeColor=none;fillColor=none;align=left;verticalAlign=top;spacingLeft=4;spacingRight=4;overflow=hidden;rotatable=0;points=[[0,0.5],[1,0.5]];portConstraint=eastwest;" vertex="1" parent="Ehaus5VikyLSaYL8oiBz-154">
          <mxGeometry y="182" width="180" height="26" as="geometry" />
        </mxCell>
        <mxCell id="Ehaus5VikyLSaYL8oiBz-162" value="+ update_at: String" style="text;strokeColor=none;fillColor=none;align=left;verticalAlign=top;spacingLeft=4;spacingRight=4;overflow=hidden;rotatable=0;points=[[0,0.5],[1,0.5]];portConstraint=eastwest;" vertex="1" parent="Ehaus5VikyLSaYL8oiBz-154">
          <mxGeometry y="208" width="180" height="26" as="geometry" />
        </mxCell>
        <mxCell id="Ehaus5VikyLSaYL8oiBz-164" value="&lt;p style=&quot;margin: 0px ; margin-top: 4px ; text-align: center&quot;&gt;&lt;b&gt;CustomerResource&lt;/b&gt;&lt;/p&gt;&lt;hr size=&quot;1&quot;&gt;&lt;div style=&quot;height: 2px&quot;&gt;&lt;/div&gt;" style="verticalAlign=top;align=left;overflow=fill;fontSize=12;fontFamily=Helvetica;html=1;" vertex="1" parent="WIyWlLk6GJQsqaUBKTNV-1">
          <mxGeometry x="370" y="1566" width="140" height="30" as="geometry" />
        </mxCell>
        <mxCell id="Ehaus5VikyLSaYL8oiBz-166" value="Extends" style="endArrow=block;endSize=16;endFill=0;html=1;entryX=0.5;entryY=1;entryDx=0;entryDy=0;" edge="1" parent="WIyWlLk6GJQsqaUBKTNV-1" target="Ehaus5VikyLSaYL8oiBz-164">
          <mxGeometry width="160" relative="1" as="geometry">
            <mxPoint x="440" y="1656" as="sourcePoint" />
            <mxPoint x="439.5" y="1596" as="targetPoint" />
          </mxGeometry>
        </mxCell>
        <mxCell id="Ehaus5VikyLSaYL8oiBz-167" value="SegmentWebRequest" style="swimlane;fontStyle=0;childLayout=stackLayout;horizontal=1;startSize=26;fillColor=none;horizontalStack=0;resizeParent=1;resizeParentMax=0;resizeLast=0;collapsible=1;marginBottom=0;" vertex="1" parent="WIyWlLk6GJQsqaUBKTNV-1">
          <mxGeometry x="350" y="2030" width="180" height="234" as="geometry">
            <mxRectangle x="270" y="2030" width="150" height="26" as="alternateBounds" />
          </mxGeometry>
        </mxCell>
        <mxCell id="Ehaus5VikyLSaYL8oiBz-168" value="+ network_id: String" style="text;strokeColor=none;fillColor=none;align=left;verticalAlign=top;spacingLeft=4;spacingRight=4;overflow=hidden;rotatable=0;points=[[0,0.5],[1,0.5]];portConstraint=eastwest;" vertex="1" parent="Ehaus5VikyLSaYL8oiBz-167">
          <mxGeometry y="26" width="180" height="26" as="geometry" />
        </mxCell>
        <mxCell id="Ehaus5VikyLSaYL8oiBz-169" value="+ physical_network: String" style="text;strokeColor=none;fillColor=none;align=left;verticalAlign=top;spacingLeft=4;spacingRight=4;overflow=hidden;rotatable=0;points=[[0,0.5],[1,0.5]];portConstraint=eastwest;" vertex="1" parent="Ehaus5VikyLSaYL8oiBz-167">
          <mxGeometry y="52" width="180" height="26" as="geometry" />
        </mxCell>
        <mxCell id="Ehaus5VikyLSaYL8oiBz-170" value="+ network_type: String" style="text;strokeColor=none;fillColor=none;align=left;verticalAlign=top;spacingLeft=4;spacingRight=4;overflow=hidden;rotatable=0;points=[[0,0.5],[1,0.5]];portConstraint=eastwest;" vertex="1" parent="Ehaus5VikyLSaYL8oiBz-167">
          <mxGeometry y="78" width="180" height="26" as="geometry" />
        </mxCell>
        <mxCell id="Ehaus5VikyLSaYL8oiBz-171" value="+ segmentation_id: Integer" style="text;strokeColor=none;fillColor=none;align=left;verticalAlign=top;spacingLeft=4;spacingRight=4;overflow=hidden;rotatable=0;points=[[0,0.5],[1,0.5]];portConstraint=eastwest;" vertex="1" parent="Ehaus5VikyLSaYL8oiBz-167">
          <mxGeometry y="104" width="180" height="26" as="geometry" />
        </mxCell>
        <mxCell id="Ehaus5VikyLSaYL8oiBz-172" value="+ revision_number: Integer" style="text;strokeColor=none;fillColor=none;align=left;verticalAlign=top;spacingLeft=4;spacingRight=4;overflow=hidden;rotatable=0;points=[[0,0.5],[1,0.5]];portConstraint=eastwest;" vertex="1" parent="Ehaus5VikyLSaYL8oiBz-167">
          <mxGeometry y="130" width="180" height="26" as="geometry" />
        </mxCell>
        <mxCell id="Ehaus5VikyLSaYL8oiBz-173" value="+ fields: String" style="text;strokeColor=none;fillColor=none;align=left;verticalAlign=top;spacingLeft=4;spacingRight=4;overflow=hidden;rotatable=0;points=[[0,0.5],[1,0.5]];portConstraint=eastwest;" vertex="1" parent="Ehaus5VikyLSaYL8oiBz-167">
          <mxGeometry y="156" width="180" height="26" as="geometry" />
        </mxCell>
        <mxCell id="Ehaus5VikyLSaYL8oiBz-174" value="+ sort_dir: String" style="text;strokeColor=none;fillColor=none;align=left;verticalAlign=top;spacingLeft=4;spacingRight=4;overflow=hidden;rotatable=0;points=[[0,0.5],[1,0.5]];portConstraint=eastwest;" vertex="1" parent="Ehaus5VikyLSaYL8oiBz-167">
          <mxGeometry y="182" width="180" height="26" as="geometry" />
        </mxCell>
        <mxCell id="Ehaus5VikyLSaYL8oiBz-175" value="+ sort_key: String" style="text;strokeColor=none;fillColor=none;align=left;verticalAlign=top;spacingLeft=4;spacingRight=4;overflow=hidden;rotatable=0;points=[[0,0.5],[1,0.5]];portConstraint=eastwest;" vertex="1" parent="Ehaus5VikyLSaYL8oiBz-167">
          <mxGeometry y="208" width="180" height="26" as="geometry" />
        </mxCell>
        <mxCell id="Ehaus5VikyLSaYL8oiBz-176" value="&lt;p style=&quot;margin: 0px ; margin-top: 4px ; text-align: center&quot;&gt;&lt;b&gt;CustomerResource&lt;/b&gt;&lt;/p&gt;&lt;hr size=&quot;1&quot;&gt;&lt;div style=&quot;height: 2px&quot;&gt;&lt;/div&gt;" style="verticalAlign=top;align=left;overflow=fill;fontSize=12;fontFamily=Helvetica;html=1;" vertex="1" parent="WIyWlLk6GJQsqaUBKTNV-1">
          <mxGeometry x="370" y="1940" width="140" height="30" as="geometry" />
        </mxCell>
        <mxCell id="Ehaus5VikyLSaYL8oiBz-177" value="Extends" style="endArrow=block;endSize=16;endFill=0;html=1;entryX=0.5;entryY=1;entryDx=0;entryDy=0;" edge="1" parent="WIyWlLk6GJQsqaUBKTNV-1" target="Ehaus5VikyLSaYL8oiBz-176">
          <mxGeometry width="160" relative="1" as="geometry">
            <mxPoint x="440" y="2030" as="sourcePoint" />
            <mxPoint x="439.5" y="1970" as="targetPoint" />
          </mxGeometry>
        </mxCell>
        <mxCell id="Ehaus5VikyLSaYL8oiBz-178" value="SegmentWebResponseJson" style="swimlane;fontStyle=0;childLayout=stackLayout;horizontal=1;startSize=26;fillColor=none;horizontalStack=0;resizeParent=1;resizeParentMax=0;resizeLast=0;collapsible=1;marginBottom=0;" vertex="1" parent="WIyWlLk6GJQsqaUBKTNV-1">
          <mxGeometry x="130" y="1656" width="180" height="52" as="geometry" />
        </mxCell>
        <mxCell id="Ehaus5VikyLSaYL8oiBz-179" value="+ segment: SegmentEntity" style="text;strokeColor=none;fillColor=none;align=left;verticalAlign=top;spacingLeft=4;spacingRight=4;overflow=hidden;rotatable=0;points=[[0,0.5],[1,0.5]];portConstraint=eastwest;" vertex="1" parent="Ehaus5VikyLSaYL8oiBz-178">
          <mxGeometry y="26" width="180" height="26" as="geometry" />
        </mxCell>
        <mxCell id="Ehaus5VikyLSaYL8oiBz-180" value="" style="endArrow=open;shadow=0;strokeWidth=1;rounded=0;endFill=1;edgeStyle=elbowEdgeStyle;elbow=vertical;" edge="1" parent="WIyWlLk6GJQsqaUBKTNV-1" source="Ehaus5VikyLSaYL8oiBz-179" target="Ehaus5VikyLSaYL8oiBz-155">
          <mxGeometry x="0.5" y="41" relative="1" as="geometry">
            <mxPoint x="310" y="1696" as="sourcePoint" />
            <mxPoint x="350" y="1696" as="targetPoint" />
            <mxPoint x="-40" y="32" as="offset" />
            <Array as="points">
              <mxPoint x="340" y="1696" />
              <mxPoint x="360" y="1642" />
            </Array>
          </mxGeometry>
        </mxCell>
        <mxCell id="Ehaus5VikyLSaYL8oiBz-181" value="1" style="resizable=0;align=left;verticalAlign=bottom;labelBackgroundColor=none;fontSize=12;" connectable="0" vertex="1" parent="Ehaus5VikyLSaYL8oiBz-180">
          <mxGeometry x="-1" relative="1" as="geometry">
            <mxPoint y="4" as="offset" />
          </mxGeometry>
        </mxCell>
        <mxCell id="Ehaus5VikyLSaYL8oiBz-182" value="1" style="resizable=0;align=right;verticalAlign=bottom;labelBackgroundColor=none;fontSize=12;" connectable="0" vertex="1" parent="Ehaus5VikyLSaYL8oiBz-180">
          <mxGeometry x="1" relative="1" as="geometry">
            <mxPoint x="-7" y="4" as="offset" />
          </mxGeometry>
        </mxCell>
        <mxCell id="Ehaus5VikyLSaYL8oiBz-183" value="SegmentWebRequestJson" style="swimlane;fontStyle=0;childLayout=stackLayout;horizontal=1;startSize=26;fillColor=none;horizontalStack=0;resizeParent=1;resizeParentMax=0;resizeLast=0;collapsible=1;marginBottom=0;" vertex="1" parent="WIyWlLk6GJQsqaUBKTNV-1">
          <mxGeometry x="120" y="2030" width="190" height="52" as="geometry">
            <mxRectangle x="120" y="2030" width="180" height="26" as="alternateBounds" />
          </mxGeometry>
        </mxCell>
        <mxCell id="Ehaus5VikyLSaYL8oiBz-184" value="+ segment: SegmentWebRequest" style="text;strokeColor=none;fillColor=none;align=left;verticalAlign=top;spacingLeft=4;spacingRight=4;overflow=hidden;rotatable=0;points=[[0,0.5],[1,0.5]];portConstraint=eastwest;" vertex="1" parent="Ehaus5VikyLSaYL8oiBz-183">
          <mxGeometry y="26" width="190" height="26" as="geometry" />
        </mxCell>
        <mxCell id="Ehaus5VikyLSaYL8oiBz-185" value="" style="endArrow=open;shadow=0;strokeWidth=1;rounded=0;endFill=1;edgeStyle=elbowEdgeStyle;elbow=vertical;" edge="1" parent="WIyWlLk6GJQsqaUBKTNV-1" source="Ehaus5VikyLSaYL8oiBz-184" target="Ehaus5VikyLSaYL8oiBz-168">
          <mxGeometry x="0.5" y="41" relative="1" as="geometry">
            <mxPoint x="310" y="2070" as="sourcePoint" />
            <mxPoint x="350" y="2070" as="targetPoint" />
            <mxPoint x="-40" y="32" as="offset" />
            <Array as="points">
              <mxPoint x="340" y="2070" />
              <mxPoint x="360" y="2016" />
            </Array>
          </mxGeometry>
        </mxCell>
        <mxCell id="Ehaus5VikyLSaYL8oiBz-186" value="1" style="resizable=0;align=left;verticalAlign=bottom;labelBackgroundColor=none;fontSize=12;" connectable="0" vertex="1" parent="Ehaus5VikyLSaYL8oiBz-185">
          <mxGeometry x="-1" relative="1" as="geometry">
            <mxPoint y="4" as="offset" />
          </mxGeometry>
        </mxCell>
        <mxCell id="Ehaus5VikyLSaYL8oiBz-187" value="1" style="resizable=0;align=right;verticalAlign=bottom;labelBackgroundColor=none;fontSize=12;" connectable="0" vertex="1" parent="Ehaus5VikyLSaYL8oiBz-185">
          <mxGeometry x="1" relative="1" as="geometry">
            <mxPoint x="-7" y="4" as="offset" />
          </mxGeometry>
        </mxCell>
        <mxCell id="Ehaus5VikyLSaYL8oiBz-188" value="SegmentsWebResponseJson" style="swimlane;fontStyle=0;childLayout=stackLayout;horizontal=1;startSize=26;fillColor=none;horizontalStack=0;resizeParent=1;resizeParentMax=0;resizeLast=0;collapsible=1;marginBottom=0;" vertex="1" parent="WIyWlLk6GJQsqaUBKTNV-1">
          <mxGeometry x="90" y="1760" width="220" height="52" as="geometry" />
        </mxCell>
        <mxCell id="Ehaus5VikyLSaYL8oiBz-189" value="+ segments: ArrayList&lt;SegmentEntity&gt;" style="text;strokeColor=none;fillColor=none;align=left;verticalAlign=top;spacingLeft=4;spacingRight=4;overflow=hidden;rotatable=0;points=[[0,0.5],[1,0.5]];portConstraint=eastwest;" vertex="1" parent="Ehaus5VikyLSaYL8oiBz-188">
          <mxGeometry y="26" width="220" height="26" as="geometry" />
        </mxCell>
        <mxCell id="Ehaus5VikyLSaYL8oiBz-190" value="" style="endArrow=open;shadow=0;strokeWidth=1;rounded=0;endFill=1;edgeStyle=elbowEdgeStyle;elbow=vertical;" edge="1" parent="WIyWlLk6GJQsqaUBKTNV-1" source="Ehaus5VikyLSaYL8oiBz-189" target="Ehaus5VikyLSaYL8oiBz-159">
          <mxGeometry x="0.5" y="41" relative="1" as="geometry">
            <mxPoint x="220" y="1840" as="sourcePoint" />
            <mxPoint x="350" y="1799" as="targetPoint" />
            <mxPoint x="-40" y="32" as="offset" />
            <Array as="points">
              <mxPoint x="320" y="1799" />
              <mxPoint x="310" y="1820" />
              <mxPoint x="330" y="1799" />
              <mxPoint x="320" y="1779" />
              <mxPoint x="340" y="1725" />
            </Array>
          </mxGeometry>
        </mxCell>
        <mxCell id="Ehaus5VikyLSaYL8oiBz-191" value="1" style="resizable=0;align=left;verticalAlign=bottom;labelBackgroundColor=none;fontSize=12;" connectable="0" vertex="1" parent="Ehaus5VikyLSaYL8oiBz-190">
          <mxGeometry x="-1" relative="1" as="geometry">
            <mxPoint y="4" as="offset" />
          </mxGeometry>
        </mxCell>
        <mxCell id="Ehaus5VikyLSaYL8oiBz-192" value="*" style="resizable=0;align=right;verticalAlign=bottom;labelBackgroundColor=none;fontSize=12;" connectable="0" vertex="1" parent="Ehaus5VikyLSaYL8oiBz-190">
          <mxGeometry x="1" relative="1" as="geometry">
            <mxPoint x="-7" y="4" as="offset" />
          </mxGeometry>
        </mxCell>
        <mxCell id="Ehaus5VikyLSaYL8oiBz-193" value="SubnetIPAvailabilityEntity" style="swimlane;fontStyle=0;childLayout=stackLayout;horizontal=1;startSize=26;fillColor=none;horizontalStack=0;resizeParent=1;resizeParentMax=0;resizeLast=0;collapsible=1;marginBottom=0;" vertex="1" parent="WIyWlLk6GJQsqaUBKTNV-1">
          <mxGeometry x="460" y="2350" width="180" height="182" as="geometry" />
        </mxCell>
        <mxCell id="Ehaus5VikyLSaYL8oiBz-194" value="+ total_ips: Integer" style="text;strokeColor=none;fillColor=none;align=left;verticalAlign=top;spacingLeft=4;spacingRight=4;overflow=hidden;rotatable=0;points=[[0,0.5],[1,0.5]];portConstraint=eastwest;" vertex="1" parent="Ehaus5VikyLSaYL8oiBz-193">
          <mxGeometry y="26" width="180" height="26" as="geometry" />
        </mxCell>
        <mxCell id="Ehaus5VikyLSaYL8oiBz-195" value="+ used_ips: Integer" style="text;strokeColor=none;fillColor=none;align=left;verticalAlign=top;spacingLeft=4;spacingRight=4;overflow=hidden;rotatable=0;points=[[0,0.5],[1,0.5]];portConstraint=eastwest;" vertex="1" parent="Ehaus5VikyLSaYL8oiBz-193">
          <mxGeometry y="52" width="180" height="26" as="geometry" />
        </mxCell>
        <mxCell id="Ehaus5VikyLSaYL8oiBz-196" value="+ subnet_id: String" style="text;strokeColor=none;fillColor=none;align=left;verticalAlign=top;spacingLeft=4;spacingRight=4;overflow=hidden;rotatable=0;points=[[0,0.5],[1,0.5]];portConstraint=eastwest;" vertex="1" parent="Ehaus5VikyLSaYL8oiBz-193">
          <mxGeometry y="78" width="180" height="26" as="geometry" />
        </mxCell>
        <mxCell id="Ehaus5VikyLSaYL8oiBz-197" value="+ subnet_name: String" style="text;strokeColor=none;fillColor=none;align=left;verticalAlign=top;spacingLeft=4;spacingRight=4;overflow=hidden;rotatable=0;points=[[0,0.5],[1,0.5]];portConstraint=eastwest;" vertex="1" parent="Ehaus5VikyLSaYL8oiBz-193">
          <mxGeometry y="104" width="180" height="26" as="geometry" />
        </mxCell>
        <mxCell id="Ehaus5VikyLSaYL8oiBz-198" value="+ ip_version: Integer" style="text;strokeColor=none;fillColor=none;align=left;verticalAlign=top;spacingLeft=4;spacingRight=4;overflow=hidden;rotatable=0;points=[[0,0.5],[1,0.5]];portConstraint=eastwest;" vertex="1" parent="Ehaus5VikyLSaYL8oiBz-193">
          <mxGeometry y="130" width="180" height="26" as="geometry" />
        </mxCell>
        <mxCell id="Ehaus5VikyLSaYL8oiBz-199" value="+ cidr: String" style="text;strokeColor=none;fillColor=none;align=left;verticalAlign=top;spacingLeft=4;spacingRight=4;overflow=hidden;rotatable=0;points=[[0,0.5],[1,0.5]];portConstraint=eastwest;" vertex="1" parent="Ehaus5VikyLSaYL8oiBz-193">
          <mxGeometry y="156" width="180" height="26" as="geometry" />
        </mxCell>
        <mxCell id="Ehaus5VikyLSaYL8oiBz-200" value="SubnetIPAvailabilityWebJson" style="swimlane;fontStyle=0;childLayout=stackLayout;horizontal=1;startSize=26;fillColor=none;horizontalStack=0;resizeParent=1;resizeParentMax=0;resizeLast=0;collapsible=1;marginBottom=0;" vertex="1" parent="WIyWlLk6GJQsqaUBKTNV-1">
          <mxGeometry x="110" y="2350" width="300" height="52" as="geometry" />
        </mxCell>
        <mxCell id="Ehaus5VikyLSaYL8oiBz-201" value="+ subnetIPAvailabilityEntity: subnetIPAvailabilityEntity" style="text;strokeColor=none;fillColor=none;align=left;verticalAlign=top;spacingLeft=4;spacingRight=4;overflow=hidden;rotatable=0;points=[[0,0.5],[1,0.5]];portConstraint=eastwest;" vertex="1" parent="Ehaus5VikyLSaYL8oiBz-200">
          <mxGeometry y="26" width="300" height="26" as="geometry" />
        </mxCell>
        <mxCell id="Ehaus5VikyLSaYL8oiBz-202" value="" style="endArrow=open;shadow=0;strokeWidth=1;rounded=0;endFill=1;edgeStyle=elbowEdgeStyle;elbow=vertical;" edge="1" parent="WIyWlLk6GJQsqaUBKTNV-1" source="Ehaus5VikyLSaYL8oiBz-201" target="Ehaus5VikyLSaYL8oiBz-194">
          <mxGeometry x="0.5" y="41" relative="1" as="geometry">
            <mxPoint x="420" y="2390" as="sourcePoint" />
            <mxPoint x="460" y="2390" as="targetPoint" />
            <mxPoint x="-40" y="32" as="offset" />
            <Array as="points">
              <mxPoint x="450" y="2390" />
              <mxPoint x="470" y="2336" />
            </Array>
          </mxGeometry>
        </mxCell>
        <mxCell id="Ehaus5VikyLSaYL8oiBz-203" value="1" style="resizable=0;align=left;verticalAlign=bottom;labelBackgroundColor=none;fontSize=12;" connectable="0" vertex="1" parent="Ehaus5VikyLSaYL8oiBz-202">
          <mxGeometry x="-1" relative="1" as="geometry">
            <mxPoint y="4" as="offset" />
          </mxGeometry>
        </mxCell>
        <mxCell id="Ehaus5VikyLSaYL8oiBz-204" value="1" style="resizable=0;align=right;verticalAlign=bottom;labelBackgroundColor=none;fontSize=12;" connectable="0" vertex="1" parent="Ehaus5VikyLSaYL8oiBz-202">
          <mxGeometry x="1" relative="1" as="geometry">
            <mxPoint x="-7" y="4" as="offset" />
          </mxGeometry>
        </mxCell>
        <mxCell id="Ehaus5VikyLSaYL8oiBz-207" value="NetworksWebJson" style="swimlane;fontStyle=0;childLayout=stackLayout;horizontal=1;startSize=26;fillColor=none;horizontalStack=0;resizeParent=1;resizeParentMax=0;resizeLast=0;collapsible=1;marginBottom=0;" vertex="1" parent="WIyWlLk6GJQsqaUBKTNV-1">
          <mxGeometry x="80" y="300" width="170" height="52" as="geometry" />
        </mxCell>
        <mxCell id="Ehaus5VikyLSaYL8oiBz-208" value="+ networks: List&lt;VpcEntity&gt;" style="text;strokeColor=none;fillColor=none;align=left;verticalAlign=top;spacingLeft=4;spacingRight=4;overflow=hidden;rotatable=0;points=[[0,0.5],[1,0.5]];portConstraint=eastwest;" vertex="1" parent="Ehaus5VikyLSaYL8oiBz-207">
          <mxGeometry y="26" width="170" height="26" as="geometry" />
        </mxCell>
        <mxCell id="Ehaus5VikyLSaYL8oiBz-209" value="" style="endArrow=open;shadow=0;strokeWidth=1;rounded=0;endFill=1;edgeStyle=elbowEdgeStyle;elbow=vertical;" edge="1" parent="WIyWlLk6GJQsqaUBKTNV-1" source="Ehaus5VikyLSaYL8oiBz-208" target="Ehaus5VikyLSaYL8oiBz-11">
          <mxGeometry x="0.5" y="41" relative="1" as="geometry">
            <mxPoint x="160" y="380" as="sourcePoint" />
            <mxPoint x="290" y="339" as="targetPoint" />
            <mxPoint x="-40" y="32" as="offset" />
            <Array as="points">
              <mxPoint x="260" y="339" />
              <mxPoint x="250" y="360" />
              <mxPoint x="270" y="339" />
              <mxPoint x="260" y="319" />
              <mxPoint x="280" y="265" />
            </Array>
          </mxGeometry>
        </mxCell>
        <mxCell id="Ehaus5VikyLSaYL8oiBz-210" value="1" style="resizable=0;align=left;verticalAlign=bottom;labelBackgroundColor=none;fontSize=12;" connectable="0" vertex="1" parent="Ehaus5VikyLSaYL8oiBz-209">
          <mxGeometry x="-1" relative="1" as="geometry">
            <mxPoint y="4" as="offset" />
          </mxGeometry>
        </mxCell>
        <mxCell id="Ehaus5VikyLSaYL8oiBz-211" value="*" style="resizable=0;align=right;verticalAlign=bottom;labelBackgroundColor=none;fontSize=12;" connectable="0" vertex="1" parent="Ehaus5VikyLSaYL8oiBz-209">
          <mxGeometry x="1" relative="1" as="geometry">
            <mxPoint x="-7" y="4" as="offset" />
          </mxGeometry>
        </mxCell>
        <mxCell id="Ehaus5VikyLSaYL8oiBz-212" value="NetworkIPAvailabilityEntity" style="swimlane;fontStyle=0;childLayout=stackLayout;horizontal=1;startSize=26;fillColor=none;horizontalStack=0;resizeParent=1;resizeParentMax=0;resizeLast=0;collapsible=1;marginBottom=0;" vertex="1" parent="WIyWlLk6GJQsqaUBKTNV-1">
          <mxGeometry x="110" y="2540" width="190" height="52" as="geometry">
            <mxRectangle x="120" y="2030" width="180" height="26" as="alternateBounds" />
          </mxGeometry>
        </mxCell>
        <mxCell id="Ehaus5VikyLSaYL8oiBz-213" value="+ segment: SegmentWebRequest" style="text;strokeColor=none;fillColor=none;align=left;verticalAlign=top;spacingLeft=4;spacingRight=4;overflow=hidden;rotatable=0;points=[[0,0.5],[1,0.5]];portConstraint=eastwest;" vertex="1" parent="Ehaus5VikyLSaYL8oiBz-212">
          <mxGeometry y="26" width="190" height="26" as="geometry" />
        </mxCell>
      </root>
    </mxGraphModel>
  </diagram>
</mxfile>
